<svg xmlns="http://www.w3.org/2000/svg" xmlns:xlink="http://www.w3.org/1999/xlink" version="1.0" viewBox="0 0 880 800">
  <path d="M430.9 45c-10.8 11.1-24 46.8-29.9 80.8-3.7 21.4-4.3 41.6-3.7 132.3l.6 85.7-2.2 1.9c-3.7 3.3-27.5 19.2-32.8 21.8-2.6 1.4-5.5 2.5-6.2 2.5-2.1 0-2.7-4.8-1.6-12.6 1.5-10.4 1.3-13.6-.9-18.1-5.1-9.9-13.2-15.3-23.1-15.3-10 0-17.8 5.7-23 17-2.3 5.1-2.5 6.6-2.5 19 0 9 .6 15.7 1.7 20 1.2 5 1.3 6.8.4 7.7-2 1.9-28.1 11.2-130.2 46.1-89 30.4-106.1 36.6-108.5 38.7-3.4 3.1-5.2 8.2-4.5 12.9.8 5 .8 4.9-8.7 20.3-3.9 6.2-6.8 11.7-6.6 12.3.2.6 3.8-2.9 8.1-7.8s8.6-9.7 9.5-10.5c1.1-1 6.8-2.4 15.2-3.6 75-11.3 102.3-15.4 112.7-17.2 11.2-1.9 12.4-1.9 14.5-.5 1.2.9 3.5 1.6 5 1.6s3 .5 3.3 1.1c.5.7 3.8.8 10 .3l9.4-.7.6 3.9c.4 2.2 1 5.5 1.4 7.4l.8 3.5.7-4.5c2-11.9 1.9-11.7 9.4-12.8 7.4-1.1 24.1-2.8 37.3-3.8l8.6-.7.6 3.9c.4 2.2.7 5.4.7 7.2 0 5.6 1.8 2.6 2.5-4.3.4-3.5 1.2-6.9 1.9-7.4.6-.5 4-1.2 7.5-1.6 4.7-.5 6.9-1.3 8.1-2.8 1.4-1.7 3.1-2.1 10.1-2.4 4.6-.2 10.4 0 12.9.4l4.5.8 1.1 8.5c1.1 9.2 1.7 9 3.7-.9 1.4-6.6 3-8.8 4-5.2.6 2.3.6 2.3 25.7 5.2l19.5 2.3-.3 43.1c-.6 80.9 3.3 136.5 11 158.8 1.8 5.3 2.7 9.2 2.1 9.8-.9.9-39.9 19.4-90.8 42.9-17 7.9-31.6 14.8-32.2 15.3-.8.6-1.3 3.3-1.3 6.9v6l3.3-.6c17.3-3.1 143.1-18.6 144-17.7.4.4 1.6 2.3 2.5 4.2 1.1 2.1 2.4 3.4 3.7 3.4 1.7 0 2.5-1.9 5.5-12.8 1.9-7.1 4-12.7 4.6-12.7.9 0 .7 2.1-.7 7.3-1 3.9-1.9 7.7-1.9 8.4 0 1.5.5 1.6 32 4.8 14 1.5 44.3 4.9 67.3 7.6 23 2.7 42.7 4.9 43.7 4.9 2.2 0 3.5-4.5 2.5-8.9-.6-2.8-2.6-3.8-33.8-17.6-46.8-20.8-87.8-39.4-90.4-41.1-2.6-1.7-2.5-2.7 2.2-23.4 5.3-22.9 7.7-44.6 9.5-86 1.2-26.8 1.2-87.6.1-97.5-.8-7.1-.6-8.9.7-6.8.6 1 5 .6 18.2-1.2 9.6-1.4 19.4-2.7 21.6-3 3-.4 4.3-1.1 4.7-2.5.3-1.1 1-2 1.6-2 1 0 1.5 1.4 4.3 12l1.2 4.5.7-4c.4-2.2 1.1-6.3 1.6-9l.8-5 7-.8c3.8-.5 9.8-.6 13.2-.2 5.1.5 6.3 1 6.3 2.5 0 1.9 3.5 3 9.9 3 5.1 0 5.8.8 7.5 7.9.8 3.5 1.7 6.5 2 6.8.3.3.8-2.2 1.2-5.6.3-3.3 1.2-6.5 1.8-7 .9-.7 17.8.6 45.2 3.5l5.2.5 1.1 4.7c.7 2.6 1.7 6.5 2.3 8.7l1.1 4 .8-3c.3-1.7.7-5.4.8-8.3l.1-5.4 9.9.7c6.9.5 10 .4 10.5-.4.4-.6 2.1-1.1 3.8-1.1 1.7 0 3.6-.7 4.2-1.5.9-1.2 1.8-1.3 4.6-.5 1.9.6 33.2 5.1 69.5 9.9l66 8.9 9.8 10.2c5.3 5.6 9.7 9.5 9.7 8.7 0-.9-3.2-6.3-7-12.1-8.1-12.1-8.5-13-9.5-21.1-1.7-13.8-3.1-14.6-48-27.5-18-5.2-190.8-62.3-193.3-63.9-1.1-.6-1-2.7.2-11.3 2.1-13.7 2-20.3-.3-31.4-2.2-10.8-4-14.4-8.5-17.9-8.6-6.5-21.2-5.3-30.4 3-8 7.2-9.2 10.6-9.2 26.8 0 13-.4 14.9-2.6 12.8-.5-.6-4.4-2.8-8.7-5-10.2-5.4-23.5-14-28.5-18.6-4.6-4.1-6.3-8.2-6.2-14.6.9-77.5.9-169.1.1-180.9-1.2-15.4-3.5-26-11.6-53.5-8-27.2-15.7-45.4-22.2-52.5-4.9-5.5-7.4-5.3-13.4 1z"/>
</svg>
